# xmcd CD database file generated by Grip 3.0.3
# 
# Track frame offsets:
#       150
#       560
#       9176
#       21710
#       27251
#       35946
#       48879
#       51822
#       62956
#       69752
#       75653
#       89481
#       102887
#       109034
#       114248
#       119539
#       122994
#       143619
#       152197
#       166188
#       171979
#       176569
#       191290
#       201444
#       214968
#       221680
#       224141
#       224792
#       225951
#       226682
# 
# Disc length: 3207 seconds
# 
# Revision: 2
# Processed by: cddbd v1.4PL0 Copyright (c) Steve Scherf et al.
# Submitted via: Grip 3.0.3
# 
DISCID=b00c851e
DTITLE=Carlo Actis Dato - The Moonwalker
DYEAR=2001
DGENRE=Jazz
TTITLE0=Arigato
TTITLE1=Bad Rap 1
TTITLE2=Fusi Orari
TTITLE3=Thai children
TTITLE4=Apaches
TTITLE5=Cocodi
TTITLE6=Sikasso
TTITLE7=Bloody Christmas
TTITLE8=Banda Sbandata
TTITLE9=Kathmandu
TTITLE10=Iga
TTITLE11=Wonderful World
TTITLE12=Marina
TTITLE13=Wine and Water
TTITLE14=Bad Rap 2
TTITLE15=Marrakech
TTITLE16=Oujda
TTITLE17=Latin Lover
TTITLE18=Wtches
TTITLE19=Basta la pasta
TTITLE20=Bali
TTITLE21=Mikhail
TTITLE22=Mambo n. 55
TTITLE23=El Oued
TTITLE24=Gamelan
TTITLE25=Bad Rap 3
TTITLE26=Arigato (same as 1)
TTITLE27=...
TTITLE28=...
TTITLE29=Mali
EXTD=
EXTT0=
EXTT1=
EXTT2=
EXTT3=
EXTT4=
EXTT5=
EXTT6=
EXTT7=
EXTT8=
EXTT9=
EXTT10=
EXTT11=
EXTT12=
EXTT13=
EXTT14=
EXTT15=
EXTT16=
EXTT17=
EXTT18=
EXTT19=
EXTT20=
EXTT21=
EXTT22=
EXTT23=
EXTT24=
EXTT25=
EXTT26=
EXTT27=
EXTT28=
EXTT29=
PLAYORDER=
